<?xml version="1.0" encoding="utf-8"?>
<!-- Generator: Adobe Illustrator 21.0.0, SVG Export Plug-In . SVG Version: 6.00 Build 0)  -->
<svg version="1.1" id="Capa_1" xmlns="http://www.w3.org/2000/svg" xmlns:xlink="http://www.w3.org/1999/xlink" x="0px" y="0px"
	 viewBox="0 0 28 25" style="enable-background:new 0 0 28 25;" xml:space="preserve">
<style type="text/css">
	.st0{fill:#878787;}
</style>
<title></title>
<desc>Created with Sketch.</desc>
<g id="Symbols">
	<g id="Modulo-social-venta----tarjeta-producto" transform="translate(-62.000000, -11.000000)">
		<path id="_xF004__1_" class="st0" d="M82.5,13.9c3.4,0,5.2,1.8,5.2,5.1c0,2.5-2.3,4.9-2.8,5.4l-8.7,8.4l-8.7-8.4l0,0l0,0
			c-0.8-0.7-2.8-3-2.8-5.3c0-3.3,1.8-5.1,5.2-5.1c2,0,4.1,1.9,4.9,2.7l1.4,1.4l1.4-1.4C78.4,15.7,80.5,13.9,82.5,13.9 M82.5,11.9
			c-2.6,0-5.1,2.1-6.3,3.3c-1.2-1.2-3.7-3.3-6.3-3.3c-4.5,0-7.2,2.7-7.2,7.1c0,3.6,3.3,6.7,3.4,6.8l9.4,9.1c0.2,0.2,0.4,0.3,0.7,0.3
			s0.5-0.1,0.7-0.3l9.4-9.1c0.1-0.1,3.5-3.2,3.5-6.8C89.7,14.5,87,11.9,82.5,11.9L82.5,11.9z"/>
	</g>
</g>
</svg>
