<?xml version="1.0" encoding="utf-8"?>
<!-- Generator: Adobe Illustrator 18.0.0, SVG Export Plug-In . SVG Version: 6.00 Build 0)  -->
<!DOCTYPE svg PUBLIC "-//W3C//DTD SVG 1.1//EN" "http://www.w3.org/Graphics/SVG/1.1/DTD/svg11.dtd">
<svg version="1.1" id="Capa_1" xmlns="http://www.w3.org/2000/svg" xmlns:xlink="http://www.w3.org/1999/xlink" x="0px" y="0px"
	 viewBox="0 0 612 792" enable-background="new 0 0 612 792" xml:space="preserve">
<path fill="#26303C" d="M533.4,576.7c-1-64.1-6.6-110.4-31.4-143.1c-21.5-28.2-56.1-45.3-117.9-57.9c4.4-4.1,8.6-8.6,12.6-13.4
	c22.8-27.8,35.4-64.8,35.4-104c0-31.9-2.5-72.3-22.1-102.5c-9.9-15.2-23.4-26.8-40.3-34.5c-17.5-8-38.4-11.9-63.6-11.9
	c-25.3,0-46.1,3.9-63.6,11.9c-16.8,7.7-30.4,19.3-40.3,34.5c-10.3,15.8-22.1,41.8-22.1,102.5c0,39.2,12.6,76.2,35.4,104
	c4.2,5.1,8.6,9.8,13.3,14.1c-59.3,12.4-92.6,29.4-113.1,57.1c-23.3,31.5-28.4,75-29.4,139.7l0,27.2l1.8,3.6
	c1.7,3.4,11.8,21.1,44.7,38.1c41.8,21.6,101.3,32.5,177.1,32.5c75.7,0,135.3-10.9,177.1-32.5c32.9-17,43-34.7,44.7-38.1l1.8-3.6V577
	L533.4,576.7z M214,258.3c0-40.4,5.1-66.3,16.6-84c8.6-13.3,25.9-31,75.4-31c23.7,0,57.3,3.2,75.4,31c11.5,17.7,16.6,43.6,16.6,84
	c0,31.4-9.8,60.7-27.7,82.5c-17.2,21-40,32.5-64.3,32.5s-47.1-11.5-64.3-32.5C223.8,319,214,289.7,214,258.3z M499.4,591.2
	c-3.3,3.9-11.5,12.2-28.1,20.7c-46,23.7-113.2,28.7-161.5,28.7c-46.4,0-111.3-4.6-157.3-26.6c-19.3-9.2-28.6-18.5-32.3-22.9v-17.5
	c0.9-57.6,4.9-95.7,22.7-119.8c15.8-21.4,45.1-34.8,100-45.5c2.8,2.4,6.4,5.1,10.8,7.7c15.2,9.1,33.9,13.9,54.2,13.9
	s39-4.8,54.2-13.9c4.4-2.6,8-5.3,10.8-7.7c55.7,10.9,85.5,24.4,102,46.1c19.2,25.2,23.6,65.7,24.5,122.9V591.2z"/>
</svg>
